<svg width="50" height="33" viewBox="0 0 50 33" fill="none" xmlns="http://www.w3.org/2000/svg">
<path fill-rule="evenodd" clip-rule="evenodd" d="M15.8073 17.1663C15.8942 17.3756 16.0653 17.5369 16.2761 17.6086L24.8686 20.5275C24.9762 20.5641 25.0887 20.5755 25.1982 20.5624C25.3023 20.55 25.4037 20.5156 25.4955 20.4599L32.9564 15.9319C33.156 15.8107 33.289 15.6021 33.3174 15.3656C33.3458 15.1292 33.2663 14.8911 33.1019 14.7196L22.9305 4.11503C22.7568 3.93401 22.5096 3.8487 22.2659 3.88664C22.0227 3.92445 21.8139 4.08048 21.7055 4.30536L15.8236 16.5189C15.7264 16.7208 15.7204 16.9571 15.8073 17.1663Z" fill="#6941C6"/>
<path fill-rule="evenodd" clip-rule="evenodd" d="M25.6774 22.8198C25.6378 22.5264 25.4394 22.2791 25.1651 22.1814L2.51134 14.1085C2.19716 13.9965 1.8507 14.1042 1.65446 14.3748C1.45836 14.6454 1.45757 15.0169 1.65255 15.2935L12.8595 31.1948C13.0289 31.4351 13.3063 31.5505 13.5742 31.5186C13.6894 31.5049 13.8028 31.4639 13.9051 31.394L25.3519 23.5655C25.5909 23.4021 25.7169 23.1132 25.6774 22.8198Z" fill="#4B00FA"/>
<path fill-rule="evenodd" clip-rule="evenodd" d="M47.1152 8.75649C46.8585 8.53668 46.4943 8.51048 46.2155 8.69174L13.2674 30.0974C12.9691 30.2912 12.844 30.6709 12.9657 31.0139C13.0873 31.3569 13.4233 31.5701 13.776 31.5299L39.392 28.6022L39.3956 28.6017C39.6687 28.5692 39.9019 28.3909 40.005 28.131L47.337 9.65267C47.4615 9.33897 47.3717 8.97625 47.1152 8.75649Z" fill="#6941C6"/>
</svg>
